<svg xmlns="http://www.w3.org/2000/svg" width="19" height="20" viewBox="0 0 19 20">
    <g fill="#FFF" fill-rule="evenodd">
        <path d="M13.073 7.3a2058.99 2058.99 0 0 1-1.904 3.023c-.124.199.035.243.156.327.818.56 1.632 1.128 2.448 1.69.59.407.768.938.48 1.596a525.551 525.551 0 0 1-2.185 4.903c-.283.63-.923.883-1.518.63-.579-.247-.845-.86-.576-1.501a75.329 75.329 0 0 1 1.635-3.674c.208-.428.132-.61-.248-.854-.994-.637-1.948-1.334-2.96-1.946-.818-.495-1.05-1.33-.619-2.196.547-1.101 1.331-2.052 1.988-3.083a21.3 21.3 0 0 1 .589-.871c.114-.16.118-.235-.11-.278-.457-.087-.908-.201-1.36-.315-.163-.04-.279.023-.404.108-.72.495-1.443.989-2.167 1.479-.133.09-.271.176-.417.243-.456.211-.947.084-1.205-.302-.276-.413-.24-.963.178-1.258C5.923 4.28 7 3.578 8.07 2.87c.221-.147.487-.108.727-.058 1.058.216 2.113.44 3.164.683.406.094.683.444 1.045.62.859.417 1.327 1.125 1.638 1.992.176.491.436.953.637 1.437.077.188.181.265.383.287.825.092 1.647.206 2.471.307.44.053.675.344.774.73.103.402-.059.74-.394.991-.229.173-.492.176-.752.147-1.04-.121-2.08-.247-3.12-.387a.953.953 0 0 1-.795-.605c-.234-.548-.49-1.088-.775-1.714"/>
        <path d="M6.88 11.363c.35.62.852 1.015 1.364 1.396.186.14.248.23.092.444-.318.435-.595.9-.912 1.335-.262.362-.628.541-1.09.539-1.445-.008-2.891 0-4.338-.004C1.29 15.07.815 14.62.8 13.954c-.015-.632.485-1.11 1.195-1.116 1.154-.008 2.308-.01 3.462.004.264.004.434-.073.578-.29.26-.386.537-.76.845-1.189M14.776 3.605c-1.027-.002-1.796-.761-1.807-1.784A1.808 1.808 0 0 1 14.806 0C15.8.012 16.6.83 16.59 1.825c-.012 1.024-.784 1.781-1.813 1.78"/>
    </g>
</svg>
